<?xml version="1.0" encoding="UTF-8"?>
<svg width="22px" height="22px" viewBox="0 0 22 22" version="1.1" xmlns="http://www.w3.org/2000/svg" xmlns:xlink="http://www.w3.org/1999/xlink">
    <!-- Generator: Sketch 48.2 (47327) - http://www.bohemiancoding.com/sketch -->
    <title>icons8-speech-bubble</title>
    <desc>Created with Sketch.</desc>
    <defs></defs>
    <g id="Page-1" stroke="none" stroke-width="1" fill="none" fill-rule="evenodd">
        <g id="icons8-speech-bubble" fill="#FFFFFF" fill-rule="nonzero">
            <path d="M11,0.0298913043 C4.98063883,0.0298913043 0.0298913043,4.26885178 0.0298913043,9.56521739 C0.0298913043,12.638417 1.73369565,15.3491848 4.30434783,17.0828804 C4.30061165,17.1856319 4.30434783,17.3444293 4.16983696,17.8451087 C4.0035667,18.4634852 3.67476235,19.3396739 2.98913043,20.3111413 L2.49592391,20.9986413 L3.34782609,21.013587 C6.30146048,21.0266645 8.01273765,19.0855978 8.2798913,18.7717391 C9.15234387,18.9660326 10.060292,19.1005435 11,19.1005435 C17.0174931,19.1005435 21.9701087,14.861583 21.9701087,9.56521739 C21.9701087,4.26885178 17.0174931,0.0298913043 11,0.0298913043 Z M11,0.926630435 C16.6027515,0.926630435 21.0733696,4.82557757 21.0733696,9.56521739 C21.0733696,14.3048572 16.6027515,18.2038043 11,18.2038043 C10.0416102,18.2038043 9.11124309,18.0879758 8.23505435,17.875 L7.96603261,17.8152174 L7.78668478,18.0394022 C7.78668478,18.0394022 6.40421196,19.5974867 4.19972826,19.9673913 C4.59765613,19.2537367 4.90030583,18.5905232 5.03668478,18.0842391 C5.22724209,17.3761887 5.23097826,16.888587 5.23097826,16.888587 L5.23097826,16.6494565 L5.02173913,16.5149457 C2.52207904,14.9307065 0.926630435,12.4067594 0.926630435,9.56521739 C0.926630435,4.82557757 5.39538043,0.926630435 11,0.926630435 Z" id="ic_mesage"></path>
        </g>
    </g>
</svg>