<?xml version="1.0" encoding="UTF-8"?>
<svg width="28px" height="25px" viewBox="0 0 28 25" version="1.1" xmlns="http://www.w3.org/2000/svg" xmlns:xlink="http://www.w3.org/1999/xlink">
    <!-- Generator: Sketch 48.2 (47327) - http://www.bohemiancoding.com/sketch -->
    <title>Group</title>
    <desc>Created with Sketch.</desc>
    <defs></defs>
    <g id="Page-1" stroke="none" stroke-width="1" fill="none" fill-rule="evenodd">
        <g id="icons8-home-filled" fill="#8E8E93" fill-rule="nonzero">
            <g id="Group">
                <path d="M25.5952381,0 L1.78571429,0 C0.80217619,0 0,0.80217619 0,1.78571429 L0,23.2142857 C0,24.1978238 0.80217619,25 1.78571429,25 L25.5952381,25 C26.5787762,25 27.3809524,24.1978238 27.3809524,23.2142857 L27.3809524,1.78571429 C27.3809524,0.80217619 26.5787762,0 25.5952381,0 Z M22.0238095,19.047619 L5.35714286,19.047619 C5.02929702,19.047619 4.76190476,18.7825524 4.76190476,18.452381 C4.76190476,18.1222101 5.02929702,17.8571429 5.35714286,17.8571429 L22.0238095,17.8571429 C22.353981,17.8571429 22.6190476,18.1222101 22.6190476,18.452381 C22.6190476,18.7825524 22.353981,19.047619 22.0238095,19.047619 Z M22.0238095,13.0952381 L5.35714286,13.0952381 C5.02929702,13.0952381 4.76190476,12.8278458 4.76190476,12.5 C4.76190476,12.1721542 5.02929702,11.9047619 5.35714286,11.9047619 L22.0238095,11.9047619 C22.353981,11.9047619 22.6190476,12.1721542 22.6190476,12.5 C22.6190476,12.8278458 22.353981,13.0952381 22.0238095,13.0952381 Z M22.0238095,7.14285714 L5.35714286,7.14285714 C5.02929702,7.14285714 4.76190476,6.87546488 4.76190476,6.54761905 C4.76190476,6.21977321 5.02929702,5.95238095 5.35714286,5.95238095 L22.0238095,5.95238095 C22.353981,5.95238095 22.6190476,6.21977321 22.6190476,6.54761905 C22.6190476,6.87546488 22.353981,7.14285714 22.0238095,7.14285714 Z" id="Shape"></path>
            </g>
        </g>
    </g>
</svg>